<svg width="24" height="24" viewBox="0 0 24 24" fill="none" xmlns="http://www.w3.org/2000/svg">
<g clip-path="url(#clip0_202_7)">
<path d="M1.02534e-06 8.75C-0.000791296 10.3395 0.457626 11.8955 1.32012 13.2306C2.18262 14.5658 3.41246 15.6234 4.86176 16.2762C6.31105 16.929 7.91807 17.1493 9.48956 16.9105C11.0611 16.6716 12.5301 15.9839 13.72 14.93L22.88 23L23.88 21.88L14.76 13.83C15.5699 12.7945 16.1207 11.5805 16.3665 10.2891C16.6123 8.99766 16.5459 7.6662 16.173 6.40561C15.8 5.14502 15.1312 3.99179 14.2223 3.04199C13.3134 2.09218 12.1908 1.3733 10.9478 0.945217C9.70486 0.517134 8.3776 0.392244 7.07661 0.580949C5.77561 0.769655 4.53854 1.26649 3.46843 2.03008C2.39832 2.79367 1.52616 3.8019 0.924584 4.97079C0.323011 6.13968 0.0094431 7.43539 0.010001 8.75H1.02534e-06ZM15 8.75C15 10.5402 14.2888 12.2571 13.023 13.523C11.7571 14.7888 10.0402 15.5 8.25 15.5C6.45979 15.5 4.7429 14.7888 3.47703 13.523C2.21116 12.2571 1.5 10.5402 1.5 8.75C1.5 6.95979 2.21116 5.2429 3.47703 3.97703C4.7429 2.71116 6.45979 2 8.25 2C10.0402 2 11.7571 2.71116 13.023 3.97703C14.2888 5.2429 15 6.95979 15 8.75V8.75Z" fill="#E5E5E5"/>
</g>
<defs>
<clipPath id="clip0_202_7">
<rect width="24" height="24" fill="white" transform="translate(0 24) rotate(-90)"/>
</clipPath>
</defs>
</svg>
